<svg width="91" height="90" viewBox="0 0 91 90" fill="none" xmlns="http://www.w3.org/2000/svg">
<path d="M26.8778 47.0303H65.0878C72.6078 47.0303 78.7078 53.1303 78.7078 60.6503V73.2003H13.2578V60.6503C13.2578 53.1203 19.3578 47.0303 26.8778 47.0303Z" fill="white"/>
<path d="M83.8381 83.46H8.12805C5.29805 83.46 2.99805 81.16 2.99805 78.33V64.11C2.99805 61.28 5.29805 58.98 8.12805 58.98C10.9581 58.98 13.2581 61.28 13.2581 64.11V73.19H78.7081V64.11C78.7081 61.28 81.0081 58.98 83.8481 58.98C86.6781 58.98 88.9781 61.28 88.9781 64.11V78.32C88.9681 81.16 86.6781 83.46 83.8381 83.46Z" fill="#F5C58A"/>
<path d="M13.7173 83.46L10.0273 88.59H13.7173L19.5074 83.46H13.7173Z" fill="white"/>
<path d="M78.248 83.46L81.938 88.59H78.248L72.458 83.46H78.248Z" fill="white"/>
<path d="M12.6582 20.7197H3.58821L1.1582 34.3197H15.0982L12.6582 20.7197Z" fill="white"/>
<path d="M54.1175 12.77H38.9775V27.91H54.1175V12.77Z" fill="#F5C58A"/>
<path d="M78.7084 1.16016H63.5684V16.3002H78.7084V1.16016Z" fill="white"/>
<path d="M31.6979 48.1701H65.0879C70.0779 48.1701 74.5879 51.1401 76.5479 55.7201C76.7979 56.3001 77.4679 56.5701 78.0579 56.3201C78.6379 56.0701 78.9079 55.4001 78.6579 54.8101C76.3279 49.3801 70.9879 45.8701 65.0879 45.8701H31.6979C31.0679 45.8701 30.5479 46.3801 30.5479 47.0201C30.5579 47.6601 31.0679 48.1701 31.6979 48.1701Z" fill="#333231"/>
<path d="M83.8374 57.8297C80.3774 57.8297 77.5674 60.6397 77.5574 64.1097V72.0497H47.1274V56.8297C47.1274 56.1997 46.6174 55.6797 45.9774 55.6797C45.3374 55.6797 44.8274 56.1897 44.8274 56.8297V72.0497H22.2574C21.6274 72.0497 21.1074 72.5597 21.1074 73.1997C21.1074 73.8297 21.6174 74.3497 22.2574 74.3497H78.6974C79.3274 74.3497 79.8474 73.8397 79.8474 73.1997V64.1197C79.9174 61.9197 81.7574 60.1897 83.9574 60.2497C86.0674 60.3097 87.7574 62.0097 87.8274 64.1197V78.3297C87.8274 80.5297 86.0374 82.3197 83.8374 82.3197H68.8074C68.1774 82.3197 67.6574 82.8297 67.6574 83.4697C67.6574 84.1097 68.1674 84.6197 68.8074 84.6197H72.0174L77.4874 89.4597C77.6974 89.6497 77.9674 89.7497 78.2474 89.7497H81.9274C82.5574 89.7497 83.0774 89.2397 83.0774 88.5997C83.0774 88.3597 83.0074 88.1297 82.8674 87.9297L80.4874 84.6097H83.8374C87.3074 84.6097 90.1174 81.7997 90.1174 78.3297V64.1197C90.1074 60.6497 87.2974 57.8397 83.8374 57.8297ZM79.6974 87.4497H78.6774L75.4674 84.6097H77.6474L79.6974 87.4497Z" fill="#333231"/>
<path d="M17.568 72.0498C16.938 72.0498 16.418 72.5598 16.418 73.1998C16.418 73.8298 16.928 74.3498 17.568 74.3498H18.138C18.768 74.3498 19.288 73.8398 19.288 73.1998C19.288 72.5698 18.778 72.0498 18.138 72.0498H17.568Z" fill="#333231"/>
<path d="M59.9577 82.3099H8.12766C5.92766 82.3099 4.13765 80.5199 4.13765 78.3199V64.0999C4.08765 61.8999 5.83766 60.0799 8.03766 60.0299C10.2377 59.9799 12.0577 61.7299 12.1077 63.9299C12.1077 63.9899 12.1077 64.0399 12.1077 64.0999V73.1799C12.1077 73.8099 12.6177 74.3299 13.2577 74.3299C13.8877 74.3299 14.4077 73.8199 14.4077 73.1799V60.6299C14.4177 53.7399 19.9977 48.1599 26.8876 48.1599C27.5176 48.1599 28.0377 47.6499 28.0377 47.0099C28.0377 46.3799 27.5276 45.8599 26.8876 45.8599C19.2477 45.8699 12.8777 51.6999 12.1877 59.3099C11.3577 58.5999 10.3576 58.1299 9.27765 57.9299V38.2599C9.27765 37.6299 8.76765 37.1099 8.12766 37.1099C7.49765 37.1099 6.97766 37.6199 6.97766 38.2599V57.9299C4.00766 58.4799 1.84766 61.0799 1.84766 64.0999V78.3099C1.84766 81.7799 4.65766 84.5899 8.12766 84.5899H11.4777L9.09766 87.9099C8.72766 88.4199 8.84765 89.1399 9.35765 89.5099C9.54765 89.6499 9.78765 89.7199 10.0276 89.7199H13.7077C13.9877 89.7199 14.2577 89.6199 14.4677 89.4299L16.6877 87.4699C17.1577 87.0499 17.1977 86.3199 16.7677 85.8499C16.3477 85.3899 15.6376 85.3399 15.1676 85.7499L13.2776 87.4299H12.2577L14.2977 84.5899H59.9577C60.5877 84.5899 61.1077 84.0799 61.1077 83.4399C61.0977 82.8299 60.5877 82.3099 59.9577 82.3099Z" fill="#333231"/>
<path d="M64.2281 82.3101H63.6881C63.0581 82.3101 62.5381 82.8201 62.5381 83.4601C62.5381 84.0901 63.0481 84.6101 63.6881 84.6101H64.2281C64.8581 84.6101 65.3781 84.1001 65.3781 83.4601C65.3781 82.8301 64.8681 82.3101 64.2281 82.3101Z" fill="#333231"/>
<path d="M44.8379 52.0001V52.5801C44.8379 53.2101 45.3479 53.7301 45.9879 53.7301C46.6279 53.7301 47.1379 53.2201 47.1379 52.5801V52.0001C47.1379 51.3701 46.6279 50.8501 45.9879 50.8501C45.3479 50.8501 44.8379 51.3701 44.8379 52.0001Z" fill="#333231"/>
<path d="M15.9778 35.0598C16.1978 34.7998 16.2878 34.4598 16.2278 34.1198L13.7878 20.5098C13.6878 19.9598 13.2178 19.5698 12.6578 19.5698H3.58783C3.03783 19.5698 2.55783 19.9698 2.45783 20.5098L0.0178239 34.1198C-0.092176 34.7398 0.317832 35.3398 0.947832 35.4498C1.01783 35.4598 1.07783 35.4698 1.14783 35.4698H15.0978C15.4378 35.4698 15.7578 35.3198 15.9778 35.0598ZM2.52782 33.1798L4.55783 21.8598H11.7078L13.7378 33.1798H2.52782Z" fill="#333231"/>
<path d="M38.9784 29.0501H54.1184C54.7484 29.0501 55.2684 28.5401 55.2684 27.9001V17.2101C55.2684 16.5801 54.7584 16.0601 54.1184 16.0601C53.4884 16.0601 52.9684 16.5701 52.9684 17.2101V26.7501H40.1184V13.9001H54.1084C54.7384 13.9001 55.2584 13.3901 55.2584 12.7501C55.2584 12.1101 54.7484 11.6001 54.1084 11.6001H38.9684C38.3384 11.6001 37.8184 12.1101 37.8184 12.7501V27.8901C37.8384 28.5401 38.3484 29.0501 38.9784 29.0501Z" fill="#333231"/>
<path d="M63.5777 17.44H78.7177C79.3477 17.44 79.8677 16.93 79.8677 16.29V1.15C79.8677 0.520002 79.3577 0 78.7177 0H63.5777C62.9477 0 62.4277 0.510002 62.4277 1.15V16.29C62.4277 16.93 62.9377 17.44 63.5777 17.44ZM64.7177 2.3H77.5577V15.15H64.7077L64.7177 2.3Z" fill="#333231"/>
</svg>
