<svg width="132" height="24" viewBox="0 0 132 24" fill="none" xmlns="http://www.w3.org/2000/svg">
<path d="M4.96322 6.66856C6.46826 6.66856 7.68511 5.54778 7.68511 4.1388C7.68511 2.72983 6.46826 1.57703 4.96322 1.57703C3.49019 1.57703 2.27335 2.72983 2.27335 4.1388C2.27335 5.54778 3.49019 6.66856 4.96322 6.66856ZM7.17275 19.7977V8.10956L0.576172 10.159V10.4472C2.20931 10.4472 2.88177 10.9275 2.88177 12.5286V19.8617C2.88177 21.4308 2.27335 22.4235 0.640216 22.4235V22.8398H9.38228V22.4235C7.78117 22.4235 7.17275 21.4308 7.17275 19.7977Z" fill="#161616"/>
<path d="M24.6649 19.7656V0.104004L18.0363 2.15343V2.44163C19.6694 2.44163 20.3419 2.95398 20.3419 4.55509V9.55056C20.0537 8.97416 19.2211 8.07754 17.684 8.07754C14.4498 8.07754 10.8633 11.1837 10.8633 16.4994C10.8633 20.1179 13.0728 23.128 16.3391 23.128C18.3245 23.128 19.8295 21.719 20.3419 20.6943V20.7904L20.47 22.8078H26.8744V22.3915C25.2413 22.3915 24.6649 21.3988 24.6649 19.7656ZM18.4206 21.2066C16.4672 21.2066 15.2504 18.4527 15.2504 14.7702C15.2504 11.9522 16.4032 8.84607 18.1644 8.84607C19.3172 8.84607 20.3419 10.4472 20.3419 12.3045V19.3814C20.2138 19.9258 19.7014 21.2066 18.4206 21.2066Z" fill="#161616"/>
<path d="M50.1856 10.5432C50.1856 10.5432 42.9486 7.08485 42.8205 7.0208C41.6677 6.47643 40.2587 5.54778 40.2587 3.65847C40.2587 2.24949 41.3154 1.19276 43.1727 1.19276C44.998 1.19276 46.2148 2.15343 47.3356 3.37027C48.2002 4.33094 49.0328 5.32363 49.9614 6.18823C50.5378 6.76463 51.4024 7.309 52.4272 7.50114H52.5552C51.9148 5.32363 51.1783 2.60174 51.4345 0.392204H51.2103C50.3137 0.840515 49.9294 1.16074 48.6806 1.16074C46.9193 1.16074 45.3823 0.392204 43.2048 0.392204C40.1306 0.392204 37.4087 3.01803 37.4087 6.25227C37.4087 9.3264 39.8744 11.1837 41.4435 11.9202C41.6036 11.9843 47.4637 14.8022 47.816 14.9623C48.5525 15.3146 50.9862 16.2752 50.9862 18.773C50.9862 21.0465 49.1609 22.2634 47.2075 22.2634C43.6851 22.2634 42.7885 15.1224 35.9998 15.1224C37.1526 17.5241 37.2806 20.4061 37.0245 23.16H37.3447C38.1773 22.3274 39.17 21.8151 40.1947 21.8151C42.084 21.8151 44.2615 23.16 47.1435 23.16C50.6659 23.16 53.9322 20.4381 53.9322 16.7235C53.9322 13.9696 51.9468 11.3758 50.1856 10.5432Z" fill="#161616"/>
<path d="M65.6688 20.1179C65.4767 20.5982 65.0924 21.5269 64.0037 21.5269C63.1071 21.5269 62.4026 20.9185 62.4026 19.6376V9.00618H65.3806V8.39776H62.4026V2.98601H61.9543C61.1537 5.16352 58.752 8.26967 55.6459 8.39776V9.00618H58.1116V19.6376C58.1116 21.719 59.2644 23.128 62.0183 23.128C64.1318 23.128 65.6368 21.687 66.1492 20.1179H65.6688Z" fill="#161616"/>
<path d="M83.5217 19.8937V8.10956L76.9252 10.127V10.4472C78.5583 10.4472 79.2308 10.9275 79.2308 12.5286L79.1987 20.214L78.8465 20.4061C78.206 20.7583 77.3094 21.4308 76.2847 21.4308C74.9398 21.4308 74.4915 20.4701 74.4915 18.9971V8.10956L67.8949 10.127V10.4472C69.528 10.4472 70.2005 10.9275 70.2005 12.5286V20.0859C70.2005 21.751 71.2572 23.128 73.3066 23.128C75.0679 23.128 76.669 22.3274 79.1987 20.9505V22.8078H85.5391V22.3915C83.906 22.3915 83.5217 21.5269 83.5217 19.8937Z" fill="#161616"/>
<path d="M101.306 19.7656V0.104004L94.677 2.15343V2.44163C96.3101 2.44163 96.9826 2.95398 96.9826 4.55509V9.55056C96.6944 8.97416 95.8618 8.07754 94.3247 8.07754C91.0905 8.07754 87.504 11.1837 87.504 16.4994C87.504 20.1179 89.7135 23.128 92.9798 23.128C94.9652 23.128 96.4702 21.719 96.9826 20.6943V20.7904L97.1107 22.8078H103.515V22.3915C101.882 22.3915 101.306 21.3988 101.306 19.7656ZM95.0612 21.2066C93.1079 21.2066 91.891 18.4527 91.891 14.7702C91.891 11.9522 93.0438 8.84607 94.8051 8.84607C95.9579 8.84607 96.9826 10.4472 96.9826 12.3045V19.3814C96.8545 19.9258 96.3421 21.2066 95.0612 21.2066Z" fill="#161616"/>
<path d="M109.755 6.66856C111.26 6.66856 112.477 5.54778 112.477 4.1388C112.477 2.72983 111.26 1.57703 109.755 1.57703C108.282 1.57703 107.065 2.72983 107.065 4.1388C107.065 5.54778 108.282 6.66856 109.755 6.66856ZM111.964 19.7977V8.10956L105.368 10.159V10.4472C107.001 10.4472 107.673 10.9275 107.673 12.5286V19.8617C107.673 21.4308 107.065 22.4235 105.432 22.4235V22.8398H114.174V22.4235C112.573 22.4235 111.964 21.4308 111.964 19.7977Z" fill="#161616"/>
<path d="M123.59 8.07754C119.523 8.07754 115.841 10.9275 115.841 15.6028C115.841 20.31 119.523 23.128 123.59 23.128C127.689 23.128 131.372 20.31 131.372 15.6028C131.372 10.9275 127.689 8.07754 123.59 8.07754ZM123.59 22.3915C121.573 22.3915 120.452 19.7336 120.452 15.6028C120.452 11.4078 121.573 8.81405 123.59 8.81405C125.608 8.81405 126.728 11.4078 126.728 15.6028C126.728 19.7977 125.608 22.3915 123.59 22.3915Z" fill="#161616"/>
<circle cx="5" cy="4" r="3" fill="#D3A265"/>
</svg>
