<svg width="35" height="24" viewBox="0 0 35 24" fill="none" xmlns="http://www.w3.org/2000/svg">
<path d="M34.2 13.1998H0.6C0.2688 13.1998 0 12.931 0 12.5998V11.3998C0 11.0686 0.2688 10.7998 0.6 10.7998H34.2C34.5312 10.7998 34.8 11.0686 34.8 11.3998V12.5998C34.8 12.931 34.5312 13.1998 34.2 13.1998Z" fill="#212121"/>
<path d="M34.2002 2.4H16.8002C16.469 2.4 16.2002 2.1312 16.2002 1.8V0.6C16.2002 0.2688 16.469 0 16.8002 0H34.2002C34.5314 0 34.8002 0.2688 34.8002 0.6V1.8C34.8002 2.1312 34.5314 2.4 34.2002 2.4Z" fill="#212121"/>
<path d="M18 24.0001H0.6C0.2688 24.0001 0 23.7313 0 23.4001V22.2001C0 21.8689 0.2688 21.6001 0.6 21.6001H18C18.3312 21.6001 18.6 21.8689 18.6 22.2001V23.4001C18.6 23.7313 18.3312 24.0001 18 24.0001Z" fill="#212121"/>
</svg>
