<svg width="75" height="75" viewBox="0 0 75 75" fill="none" xmlns="http://www.w3.org/2000/svg">
<path d="M3.62809 3.60416C0.258086 6.97416 0.258086 12.4442 3.62809 15.8142L53.6981 65.8842L65.9081 53.6742L15.8381 3.60416C12.4681 0.23416 6.99809 0.23416 3.62809 3.60416Z" fill="#F5C58A"/>
<path d="M10.0576 22.2541L3.61765 15.8141C0.257646 12.4241 0.277646 6.96412 3.66765 3.60412C7.03765 0.264121 12.4676 0.264121 15.8376 3.60412L22.2776 10.0441L10.0576 22.2541Z" fill="#F5C58A"/>
<path d="M22.2731 10.0467L10.0615 22.2583L14.9193 27.1161L27.1309 14.9045L22.2731 10.0467Z" fill="white"/>
<path d="M53.6978 65.8841C53.6978 65.8841 29.3978 33.0341 59.8078 59.7741C59.8078 59.7741 21.0978 16.784 65.9178 53.6641L73.8578 73.8141L53.6978 65.8841Z" fill="white"/>
<path d="M65.6387 70.594C66.4987 68.294 68.3087 66.484 70.6087 65.624L73.8387 73.834L65.6387 70.594Z" fill="#F5C58A"/>
<path d="M32.4979 21.6843C32.8879 22.0743 33.5279 22.0743 33.9179 21.6843C34.3079 21.2943 34.3079 20.6543 33.9179 20.2643L33.4179 19.7643C33.0079 19.3843 32.3679 19.4143 31.9979 19.8243C31.6479 20.2043 31.6479 20.7943 31.9979 21.1843L32.4979 21.6843Z" fill="#333231"/>
<path d="M45.498 50.3343C46.388 50.5543 49.438 52.0143 59.128 60.5343C59.548 60.9043 60.178 60.8543 60.548 60.4443C60.888 60.0643 60.878 59.4843 60.538 59.1143C60.478 59.0443 54.448 52.3543 49.978 46.5943C49.638 46.1543 49.008 46.0643 48.568 46.4043C48.128 46.7443 48.038 47.3743 48.378 47.8143C48.388 47.8243 48.388 47.8243 48.398 47.8343C49.348 49.0543 50.358 50.3143 51.378 51.5343C46.188 47.7043 44.858 47.9743 44.038 48.7243C43.018 49.6543 43.138 51.5843 46.888 57.6643L11.478 22.2643L22.278 11.4643L25.708 14.9043L16.788 23.8243C16.398 24.2143 16.398 24.8543 16.788 25.2443C17.178 25.6343 17.818 25.6343 18.208 25.2443L27.128 16.3243L29.068 18.2643C29.458 18.6543 30.098 18.6543 30.488 18.2643C30.878 17.8743 30.878 17.2343 30.488 16.8443L22.978 9.3343L16.538 2.8943C12.808 -0.905701 6.708 -0.975701 2.898 2.7543C-0.912003 6.4843 -0.972003 12.5843 2.758 16.3943C2.808 16.4443 2.848 16.4843 2.898 16.5343C3.288 16.9343 3.918 16.9443 4.318 16.5543C4.718 16.1643 4.728 15.5343 4.338 15.1343C4.328 15.1243 4.318 15.1143 4.318 15.1143C1.338 12.1343 1.338 7.3043 4.318 4.3243C7.298 1.3443 12.128 1.3443 15.108 4.3243L20.838 10.0543L10.058 20.8343L6.958 17.7343C6.568 17.3443 5.928 17.3443 5.538 17.7343C5.148 18.1243 5.148 18.7643 5.538 19.1543L9.348 22.9643L52.568 66.1843C52.628 66.2343 52.688 66.2743 52.748 66.3043L52.878 66.4843C53.218 66.9243 53.848 67.0143 54.288 66.6743C54.718 66.3443 54.808 65.7343 54.498 65.2943C50.158 59.4143 45.718 52.3043 45.498 50.3343Z" fill="#333231"/>
<path d="M74.778 73.4546L66.838 53.3046C66.838 53.2946 66.828 53.2946 66.828 53.2846C66.778 53.1846 66.718 53.0846 66.638 53.0046C66.628 52.9946 66.628 52.9746 66.618 52.9646L36.568 22.9146C36.178 22.5246 35.538 22.5246 35.148 22.9146C34.758 23.3046 34.758 23.9446 35.148 24.3346L53.288 42.4746C45.288 36.6646 44.408 37.4746 43.728 38.1246C42.798 39.0046 42.988 40.4946 46.668 45.5246C46.998 45.9746 47.628 46.0746 48.078 45.7446C48.528 45.4146 48.628 44.7846 48.298 44.3346C47.218 42.9546 46.278 41.4746 45.488 39.9046C47.038 40.5246 51.638 43.2346 65.078 54.2846L69.328 65.0846C67.508 66.0046 66.028 67.4746 65.118 69.2946L57.588 66.3246C57.068 66.1146 56.488 66.3646 56.278 66.8746C56.068 67.3946 56.318 67.9746 56.828 68.1846C56.838 68.1846 56.838 68.1946 56.848 68.1946L73.478 74.7646C73.998 74.9646 74.578 74.7146 74.788 74.1946C74.878 73.9546 74.878 73.6946 74.778 73.4546ZM66.998 70.0446C67.688 68.7346 68.758 67.6646 70.068 66.9746L72.058 72.0346L66.998 70.0446Z" fill="#333231"/>
</svg>
