<svg width="111" height="74" viewBox="0 0 111 74" fill="none" xmlns="http://www.w3.org/2000/svg">
<path d="M108.88 7.27051H1.41992V71.9405H108.88V7.27051Z" fill="#F5C58A"/>
<path d="M100.1 12.5508H10.2002V66.6608H100.1V12.5508Z" fill="white"/>
<path d="M25.0898 66.6606L42.6099 29.1406L60.1299 66.6606H25.0898Z" fill="#F5C58A"/>
<path d="M64.8901 18.9507L51.3701 47.9007L60.1301 66.6607H87.1701L64.8901 18.9507Z" fill="#F5C58A"/>
<path d="M27.4299 29.1308C29.8047 29.1308 31.7299 27.2056 31.7299 24.8308C31.7299 22.4559 29.8047 20.5308 27.4299 20.5308C25.0551 20.5308 23.1299 22.4559 23.1299 24.8308C23.1299 27.2056 25.0551 29.1308 27.4299 29.1308Z" fill="#F5C58A"/>
<path d="M108.88 13.9506C109.65 13.9506 110.28 13.3206 110.28 12.5506V7.27062C110.28 7.24062 110.26 7.21062 110.26 7.17062C110.24 6.98062 110.19 6.80062 110.11 6.63062C110.1 6.60062 110.1 6.57062 110.08 6.54062C110.05 6.50062 110.01 6.46062 109.97 6.42062C109.91 6.34062 109.85 6.27062 109.77 6.21062C109.63 6.10062 109.48 6.01062 109.31 5.95062C109.22 5.92062 109.13 5.90062 109.04 5.90062C108.99 5.89062 108.93 5.87062 108.87 5.87062H100.77C100.95 5.39062 101.05 4.89062 101.05 4.37062C101.09 2.00062 99.19 0.0406202 96.82 0.000620177C94.45 -0.0393798 92.49 1.86062 92.45 4.23062C92.45 4.28062 92.45 4.32062 92.45 4.37062C92.45 4.88062 92.55 5.39062 92.73 5.87062H17.54C17.72 5.39062 17.82 4.89062 17.82 4.37062C17.86 2.00062 15.96 0.0406202 13.59 0.000620177C11.22 -0.0393798 9.26 1.86062 9.22 4.23062C9.22 4.28062 9.22 4.32062 9.22 4.37062C9.22 4.88062 9.32 5.39062 9.5 5.87062H1.40002C1.35002 5.88062 1.29002 5.89062 1.24002 5.90062C0.870021 5.93062 0.529998 6.13062 0.309998 6.43062C0.269998 6.47062 0.230012 6.51062 0.200012 6.55062C0.180012 6.58062 0.180013 6.61062 0.170013 6.64062C0.0900134 6.81062 0.0400195 6.99062 0.0200195 7.18062C0.0200195 7.21062 0 7.24062 0 7.28062V71.9606C0 71.9906 0.0200195 72.0206 0.0200195 72.0606C0.0400195 72.2506 0.0900134 72.4306 0.170013 72.6006C0.180013 72.6306 0.180012 72.6606 0.200012 72.6906C0.250012 72.7706 0.310005 72.8506 0.380005 72.9206C0.390005 72.9306 0.400013 72.9506 0.420013 72.9606C0.530013 73.0706 0.669998 73.1606 0.809998 73.2206C0.839998 73.2406 0.880013 73.2506 0.920013 73.2606C1.07001 73.3206 1.24002 73.3506 1.40002 73.3606H108.86C109.02 73.3606 109.19 73.3206 109.34 73.2606C109.38 73.2506 109.41 73.2306 109.45 73.2206C109.59 73.1606 109.73 73.0706 109.84 72.9606C109.85 72.9506 109.86 72.9306 109.88 72.9206C109.95 72.8506 110.01 72.7706 110.06 72.6906C110.08 72.6606 110.08 72.6306 110.09 72.6006C110.17 72.4306 110.22 72.2506 110.24 72.0606C110.24 72.0306 110.26 72.0006 110.26 71.9606V18.9506C110.26 18.1806 109.63 17.5506 108.86 17.5506C108.09 17.5506 107.46 18.1806 107.46 18.9506V69.4606L101.48 65.8606V62.4006C101.48 61.6306 100.85 61.0006 100.08 61.0006C99.31 61.0006 98.68 61.6306 98.68 62.4006V65.2506H88.04L66.14 18.3506C65.81 17.6506 64.98 17.3406 64.28 17.6706C63.98 17.8106 63.74 18.0506 63.6 18.3506L52.86 41.3506C52.53 42.0506 52.84 42.8906 53.54 43.2106C54.24 43.5406 55.08 43.2306 55.4 42.5306L64.87 22.2406L84.94 65.2306H61.03L43.89 28.5206C43.56 27.8206 42.73 27.5106 42.03 27.8406C41.73 27.9806 41.49 28.2206 41.35 28.5206L26.33 60.6906C26 61.3906 26.31 62.2306 27.01 62.5506C27.71 62.8706 28.55 62.5706 28.87 61.8706L42.62 32.4106L57.94 65.2206H53.05C52.28 65.2206 51.65 65.8506 51.65 66.6206C51.65 67.3906 52.28 68.0206 53.05 68.0206H99.71L103.83 70.5006H6.47L10.59 68.0206H46.6C47.37 68.0206 48 67.3906 48 66.6206C48 65.8506 47.37 65.2206 46.6 65.2206H11.6V13.9206H16.43C17.2 13.9206 17.83 13.2906 17.83 12.5206C17.83 11.7506 17.2 11.1206 16.43 11.1206H10.59L6.47 8.64062H103.84L99.72 11.1206H28.62C27.85 11.1206 27.22 11.7506 27.22 12.5206C27.22 13.2906 27.85 13.9206 28.62 13.9206H98.7V56.5706C98.7 57.3406 99.33 57.9706 100.1 57.9706C100.87 57.9706 101.5 57.3406 101.5 56.5706V13.3406L107.48 9.74062V12.5406C107.47 13.3206 108.1 13.9506 108.88 13.9506C108.87 13.9506 108.87 13.9506 108.88 13.9506ZM95.27 4.37062C95.27 3.54062 95.94 2.87062 96.77 2.87062C97.6 2.87062 98.27 3.54062 98.27 4.37062C98.27 5.20062 97.6 5.87062 96.77 5.87062C95.93 5.86062 95.27 5.19062 95.27 4.37062ZM12.04 4.37062C12.04 3.54062 12.71 2.88062 13.54 2.88062C14.37 2.88062 15.03 3.55062 15.03 4.38062C15.03 5.20062 14.36 5.87062 13.53 5.87062C12.71 5.87062 12.04 5.20062 12.04 4.37062ZM8.80002 65.8606L2.82001 69.4606V9.74062L8.80002 13.3406V65.8606Z" fill="#333231"/>
<path d="M23.8397 13.9504C24.6097 13.9504 25.2397 13.3204 25.2397 12.5504C25.2397 11.7804 24.6097 11.1504 23.8397 11.1504H23.1198C22.3498 11.1504 21.7197 11.7804 21.7197 12.5504C21.7197 13.3204 22.3498 13.9504 23.1198 13.9504H23.8397Z" fill="#321F10"/>
<path d="M27.4305 30.5409C30.5805 30.5409 33.1405 27.9909 33.1405 24.8409C33.1405 21.6909 30.5905 19.1309 27.4405 19.1309C24.2905 19.1309 21.7305 21.6809 21.7305 24.8309C21.7405 27.9809 24.2805 30.5309 27.4305 30.5409ZM27.4305 21.9309C29.0305 21.9309 30.3305 23.2209 30.3405 24.8309C30.3405 26.4309 29.0505 27.7309 27.4405 27.7409C25.8305 27.7509 24.5405 26.4509 24.5305 24.8409C24.5305 24.8409 24.5305 24.8409 24.5305 24.8309C24.5405 23.2309 25.8305 21.9409 27.4305 21.9309Z" fill="#333231"/>
</svg>
