<svg width="88" height="85" viewBox="0 0 88 85" fill="none" xmlns="http://www.w3.org/2000/svg">
<path d="M2 83.9899V11H87V70.5726C87 77.985 80.9886 84 73.5806 84L2 83.9899Z" fill="white"/>
<path d="M78.5 75C83.1944 75 87 72.7614 87 70C87 67.2386 83.1944 65 78.5 65C73.8056 65 70 67.2386 70 70C70 72.7614 73.8056 75 78.5 75Z" fill="white"/>
<path d="M70 6.30847V70C70 67.0722 73.8053 64.6915 78.5 64.6915C83.1946 64.6915 87 67.0722 87 70V6.30847C87 3.38071 83.1946 1 78.5 1C73.8053 1 70 3.37058 70 6.30847Z" fill="#F5C58A"/>
<path d="M52.7485 44.7532L39.894 35.1264C39.6627 34.9579 39.3408 34.9579 39.1095 35.1264L26.255 44.7532C25.9734 44.9614 25.913 45.3679 26.1343 45.6455C26.255 45.8041 26.4461 45.8933 26.6473 45.8933H29.5843V59H49.4192V45.8933H52.3563C52.7083 45.8933 53 45.6058 53 45.2588C53 45.0605 52.9095 44.8721 52.7485 44.7532Z" fill="#F5C58A"/>
<path d="M67 11.1107C67 10.4947 66.5 10 65.8775 10H1.12244C0.499991 10 0 10.4947 0 11.1107V83.8893C0 84.5052 0.499991 85 1.12244 85C1.74489 85 2.24489 84.5052 2.24489 83.8893V12.2112H65.8877C66.5 12.2112 67 11.7165 67 11.1107Z" fill="#321F10"/>
<path d="M78.6005 0C73.3304 0 69.2011 2.79678 69.2011 6.37827V20.6539H66.1823V17.1227C66.1823 16.5091 65.6876 16.0161 65.0718 16.0161C64.4559 16.0161 63.9612 16.5091 63.9612 17.1227V20.6539H54.4507V17.1227C54.4507 16.5091 53.956 16.0161 53.3401 16.0161C52.7242 16.0161 52.2295 16.5091 52.2295 17.1227V20.6539H42.719V17.1227C42.719 16.5091 42.2243 16.0161 41.6084 16.0161C40.9926 16.0161 40.4979 16.5091 40.4979 17.1227V20.6539H30.9873V17.1227C30.9873 16.5091 30.4926 16.0161 29.8768 16.0161C29.2609 16.0161 28.7662 16.5091 28.7662 17.1227V20.6539H19.2557V17.1227C19.2557 16.5091 18.761 16.0161 18.1451 16.0161C17.5292 16.0161 17.0345 16.5091 17.0345 17.1227V20.6539H13.4201C12.8043 20.6539 12.3096 21.1469 12.3096 21.7606C12.3096 22.3742 12.8043 22.8672 13.4201 22.8672H17.0345V29.2555H9.51296C8.89709 29.2555 8.40238 29.7485 8.40238 30.3622C8.40238 30.9759 8.89709 31.4688 9.51296 31.4688H17.0345V37.8571H9.51296C8.89709 37.8571 8.40238 38.3501 8.40238 38.9638C8.40238 39.5775 8.89709 40.0704 9.51296 40.0704H17.0345V46.4588H9.51296C8.89709 46.4588 8.40238 46.9517 8.40238 47.5654C8.40238 48.1791 8.89709 48.672 9.51296 48.672H17.0345V55.0604H9.51296C8.89709 55.0604 8.40238 55.5533 8.40238 56.167C8.40238 56.7807 8.89709 57.2736 9.51296 57.2736H17.0345V63.662H9.51296C8.89709 63.662 8.40238 64.1549 8.40238 64.7686C8.40238 65.3823 8.89709 65.8753 9.51296 65.8753H17.0345V72.2636H9.51296C8.89709 72.2636 8.40238 72.7565 8.40238 73.3702C8.40238 73.9839 8.89709 74.4769 9.51296 74.4769H17.0345V78.2193C17.0345 78.833 17.5292 79.326 18.1451 79.326C18.761 79.326 19.2557 78.833 19.2557 78.2193V74.4769H28.7662V78.2193C28.7662 78.833 29.2609 79.326 29.8768 79.326C30.4926 79.326 30.9873 78.833 30.9873 78.2193V74.4769H40.4979V78.2193C40.4979 78.833 40.9926 79.326 41.6084 79.326C42.2243 79.326 42.719 78.833 42.719 78.2193V74.4769H52.2295V78.2193C52.2295 78.833 52.7242 79.326 53.3401 79.326C53.956 79.326 54.4507 78.833 54.4507 78.2193V74.4769H72.3813C74.2794 75.5433 76.4299 76.0765 78.6005 76.0463C80.9327 76.0966 83.2346 75.4728 85.2135 74.2354C83.5981 79.326 78.863 82.7767 73.502 82.7867H6.11056C5.4947 82.7867 5 83.2797 5 83.8934C5 84.507 5.4947 85 6.11056 85H73.502C81.4981 84.9899 87.9798 78.5312 87.9899 70.5634C87.9798 70.4829 87.9697 70.4024 87.9394 70.332C87.9697 70.1207 87.9899 69.8994 87.9899 69.6881C87.9899 66.1167 83.8606 63.3199 78.5904 63.3199C76.0159 63.2394 73.4818 64.0242 71.402 65.5533V34.4769C71.402 33.8632 70.9073 33.3702 70.2914 33.3702C69.6756 33.3702 69.1809 33.8632 69.1809 34.4769V37.837H66.1621V31.4487H70.2914C70.9073 31.4487 71.402 30.9557 71.402 30.3421V6.36821C71.402 4.10463 74.6933 2.20322 78.5904 2.20322C82.4875 2.20322 85.7788 4.11469 85.7788 6.36821V57.0121C85.7788 57.6258 86.2736 58.1187 86.8894 58.1187C87.5053 58.1187 88 57.6258 88 57.0121V6.36821C88.0101 2.79678 83.8808 0 78.6005 0ZM63.9713 22.8571V29.2455H54.4608V22.8571H63.9713ZM19.286 22.8571H28.7965V29.2455H19.286V22.8571ZM19.286 72.2233V65.835H28.7965V72.2233H19.286ZM63.9713 65.835V72.2233H54.4608V65.835H63.9713ZM69.2011 55.0302H66.1823V48.6419H69.2011V55.0302ZM69.2011 57.2435V63.6318H66.1823V57.2435H69.2011ZM69.2011 65.835V69.6278C69.2112 70.5533 69.4837 71.4588 69.9986 72.2334H66.1823V65.835H69.2011ZM78.6005 65.4527C82.4976 65.4527 85.7889 67.3642 85.7889 69.6177C85.7889 71.8712 82.4976 73.7827 78.6005 73.7827C74.7034 73.7827 71.4121 71.8712 71.4121 69.6177C71.4121 67.3642 74.7034 65.4527 78.6005 65.4527ZM69.2011 40.0503V46.4386H66.1823V40.0503H69.2011ZM63.9713 37.837H53.4108C52.7949 37.837 52.3002 38.33 52.3002 38.9437C52.3002 39.5573 52.7949 40.0503 53.4108 40.0503H63.9713V46.4386H58.6607C58.0449 46.4386 57.5502 46.9316 57.5502 47.5453C57.5502 48.159 58.0449 48.6519 58.6607 48.6519H63.9713V55.0402H57.3382C56.7223 55.0402 56.2276 55.5332 56.2276 56.1469C56.2276 56.7606 56.7223 57.2535 57.3382 57.2535H63.9713V63.6419H37.8729C37.257 63.6419 36.7623 64.1348 36.7623 64.7485C36.7623 65.3622 37.257 65.8551 37.8729 65.8551H52.2497V72.2435H42.7392V69.0443C42.7392 68.4306 42.2445 67.9376 41.6286 67.9376C41.0128 67.9376 40.5181 68.4306 40.5181 69.0443V72.2435H31.0075V65.8551H33.4407C34.0566 65.8551 34.5513 65.3622 34.5513 64.7485C34.5513 64.1348 34.0566 63.6419 33.4407 63.6419H19.286V57.2435H24.8186C25.4345 57.2435 25.9292 56.7505 25.9292 56.1368C25.9292 55.5231 25.4345 55.0302 24.8186 55.0302H19.286V48.6419H22.0523C22.6682 48.6419 23.1629 48.1489 23.1629 47.5352C23.1629 46.9215 22.6682 46.4286 22.0523 46.4286H19.286V40.0402H24.2633C24.8792 40.0402 25.3739 39.5473 25.3739 38.9336C25.3739 38.3199 24.8792 37.827 24.2633 37.827H19.286V31.4386H28.7965V35.9557C28.7965 36.5694 29.2912 37.0624 29.9071 37.0624C30.5229 37.0624 31.0176 36.5694 31.0176 35.9557V31.4386H44.506C45.1219 31.4386 45.6166 30.9457 45.6166 30.332C45.6166 29.7183 45.1219 29.2254 44.506 29.2254H31.0176V22.837H40.5282V26.3682C40.5282 26.9819 41.0229 27.4748 41.6387 27.4748C42.2546 27.4748 42.7493 26.9819 42.7493 26.3682V22.837H52.2598V29.2254H48.9382C48.3223 29.2254 47.8276 29.7183 47.8276 30.332C47.8276 30.9457 48.3223 31.4386 48.9382 31.4386H52.2598V33.4205C52.2598 34.0342 52.7545 34.5272 53.3704 34.5272C53.9862 34.5272 54.481 34.0342 54.481 33.4205V31.4386H63.9915V37.837H63.9713ZM66.1823 22.8571H69.2011V29.2455H66.1823V22.8571Z" fill="#321F10"/>
<path d="M86.5 60C85.6682 60 85 60.5069 85 61.1379V61.8621C85 62.4931 85.6682 63 86.5 63C87.3318 63 88 62.4931 88 61.8621V61.1379C88 60.5069 87.3318 60 86.5 60Z" fill="#321F10"/>
<path d="M38.5645 34.3473L25.6887 43.9129C24.923 44.4842 24.7718 45.558 25.3562 46.3067C25.6887 46.7303 26.2025 46.9766 26.7465 46.9766H28.5802V58.9164C28.5802 59.5173 29.0739 60 29.6884 60H49.5563C50.1709 60 50.6646 59.5173 50.6646 58.9164V47.6366C50.6646 47.0357 50.1709 46.553 49.5563 46.553C48.9417 46.553 48.4481 47.0357 48.4481 47.6366V57.8524H30.7866V45.9028C30.7866 45.3019 30.2929 44.8192 29.6783 44.8192H28.0966L39.6123 36.2683L52.206 45.627C52.6795 46.0013 53.3747 45.9225 53.7576 45.4595C54.1404 44.9965 54.0598 44.3168 53.5863 43.9424C53.5762 43.9326 53.5561 43.9227 53.546 43.9129L40.6702 34.3473C40.0455 33.8842 39.1891 33.8842 38.5645 34.3473Z" fill="#321F10"/>
<path d="M9.12628 21C8.50171 21 8 21.4455 8 22C8 22.5545 8.50171 23 9.12628 23H9.87372C10.4983 23 11 22.5545 11 22C11 21.4455 10.4983 21 9.87372 21H9.12628Z" fill="#321F10"/>
<path d="M66 78.6335V77.3665C66 76.6087 65.5546 76 65 76C64.4455 76 64 76.6087 64 77.3665V78.6335C64 79.3913 64.4455 80 65 80C65.5546 80 66 79.3789 66 78.6335Z" fill="#321F10"/>
</svg>
