<svg width="20" height="20" viewBox="0 0 20 20" fill="none" xmlns="http://www.w3.org/2000/svg">
<path d="M0 0V20H20V0H0ZM16 7V7.375C16 11.5 12.875 16.125 7.25 16.125C5.5 16.125 3.875 15.625 2.5 14.75H3.25C4.75 14.75 6 14.25 7.125 13.375C5.75 13.375 4.625 12.5 4.25 11.25H4.875C5.125 11.25 5.375 11.25 5.625 11.125C4.25 10.875 3.125 9.625 3.125 8.125C3.5 8.375 4 8.5 4.5 8.5C3.625 8 3.125 7 3.125 6C3.125 5.375 3.25 4.875 3.5 4.5C5 6.375 7.375 7.5 9.875 7.625C9.875 7.375 9.75 7.125 9.75 6.875C9.75 5.125 11.125 3.75 12.875 3.75C13.75 3.75 14.5 4.125 15.125 4.75C15.875 4.625 16.5 4.375 17.125 4C16.875 4.75 16.375 5.375 15.75 5.75C16.375 5.625 17 5.5 17.5 5.25C17.125 6 16.625 6.5 16 7Z" fill="#D3A265"/>
</svg>
